<?xml version="1.0" standalone="no"?>
<!DOCTYPE svg PUBLIC "-//W3C//DTD SVG 20010904//EN"
 "http://www.w3.org/TR/2001/REC-SVG-20010904/DTD/svg10.dtd">
<svg version="1.0" xmlns="http://www.w3.org/2000/svg"
 width="564.000000pt" height="564.000000pt" viewBox="0 0 564.000000 564.000000"
 preserveAspectRatio="xMidYMid meet">
<metadata>
Created by potrace 1.14, written by Peter Selinger 2001-2017
</metadata>
<g transform="translate(0.000000,564.000000) scale(0.100000,-0.100000)"
fill="#000000" stroke="none">
<path d="M4275 4581 c-22 -10 -77 -45 -122 -77 -46 -33 -115 -81 -155 -109
-168 -116 -347 -256 -390 -304 -25 -28 -49 -51 -52 -51 -3 0 22 48 55 106 33
58 59 108 57 110 -5 5 -200 -167 -404 -357 -154 -143 -342 -333 -537 -544
l-46 -50 6 40 c6 39 3 37 -98 -85 -117 -141 -228 -287 -282 -372 -73 -116
-127 -243 -127 -300 0 -19 -16 -52 -44 -91 -24 -34 -65 -102 -91 -152 -27 -49
-52 -94 -56 -99 -5 -6 -29 8 -57 32 l-49 41 -102 -128 c-94 -118 -106 -129
-142 -135 -22 -3 -49 -16 -60 -27 -19 -19 -21 -30 -16 -93 l5 -71 -127 -160
c-193 -242 -190 -238 -181 -310 8 -67 -2 -172 -24 -255 -8 -30 -13 -56 -11
-58 1 -1 38 59 82 135 68 117 79 141 70 160 -12 27 -5 47 26 68 53 34 108 -26
73 -80 -9 -14 -25 -25 -35 -25 -12 0 -49 -45 -109 -134 -51 -74 -92 -137 -92
-141 0 -4 29 20 65 53 72 68 175 132 250 156 l50 16 88 214 88 214 56 7 c30 4
77 13 104 21 53 16 67 40 55 90 -5 20 10 56 74 171 44 80 79 147 78 148 -2 1
-31 15 -66 30 -34 15 -62 32 -62 38 0 11 55 78 162 198 63 71 71 77 116 82
157 19 551 216 1057 530 156 96 166 105 96 77 -94 -36 -89 -18 15 59 344 258
634 493 615 499 -6 2 -45 -15 -86 -37 -41 -23 -77 -41 -81 -41 -3 0 18 19 48
43 179 139 350 332 422 475 52 103 85 296 66 387 -21 101 -80 130 -175 86z
m-105 -325 c0 -3 -57 -46 -127 -97 -798 -580 -1393 -1098 -1680 -1460 -43 -53
-79 -96 -81 -94 -2 2 9 23 24 47 224 356 932 982 1695 1498 162 109 169 114
169 106z"/>
<path d="M4228 1203 c6 -2 18 -2 25 0 6 3 1 5 -13 5 -14 0 -19 -2 -12 -5z"/>
<path d="M4158 1193 c12 -2 30 -2 40 0 9 3 -1 5 -23 4 -22 0 -30 -2 -17 -4z"/>
<path d="M3893 1174 c-90 -8 -163 -21 -200 -35 -246 -90 -310 -110 -397 -119
-125 -14 -234 -1 -475 59 -138 35 -233 52 -321 60 -69 6 -183 18 -255 27 -223
27 -361 6 -499 -77 -125 -75 -137 -77 -421 -54 -46 4 -33 -1 60 -21 179 -38
241 -32 376 34 171 86 236 87 629 11 210 -40 303 -65 483 -128 49 -17 92 -29
97 -26 4 2 77 6 161 8 100 3 181 10 229 22 119 28 336 114 372 147 29 27 44
31 167 49 74 11 137 22 140 26 3 3 -10 3 -29 0 -19 -3 -44 -2 -55 3 -16 7 -12
9 20 10 22 1 60 5 85 9 41 8 42 9 10 9 -19 0 -99 -6 -177 -14z"/>
</g>
</svg>
